<?xml version="1.0" encoding="utf-8"?>
<!-- Generator: Adobe Illustrator 15.0.0, SVG Export Plug-In . SVG Version: 6.00 Build 0)  -->
<!DOCTYPE svg PUBLIC "-//W3C//DTD SVG 1.1//EN" "http://www.w3.org/Graphics/SVG/1.1/DTD/svg11.dtd">
<svg version="1.1" id="Layer_1" xmlns="http://www.w3.org/2000/svg" xmlns:xlink="http://www.w3.org/1999/xlink" x="0px" y="0px"
	 width="240px" height="80px" viewBox="0 0 240 80" enable-background="new 0 0 240 80" xml:space="preserve">
<g id="guides" display="none">
</g>
<g enable-background="new    ">
	<path fill="#555555" d="M46.446,48.153h-9.563c-1.029,2.438-2.362,5.639-3.201,7.849h-4.153l10.706-27.014h2.82l10.707,27.014
		h-4.115L46.446,48.153z M38.33,44.533h6.629l-3.276-9.411L38.33,44.533z"/>
	<path fill="#555555" d="M64.577,29.369c8.726,0,13.107,6.668,13.107,13.336c0,6.667-4.381,13.297-13.107,13.297h-9.563V29.369
		H64.577z M64.577,52.153c6.172,0,9.297-4.725,9.297-9.448c0-4.725-3.125-9.487-9.297-9.487h-5.715v18.936H64.577z"/>
	<path fill="#555555" d="M96.5,29.369h4.115L89.909,56.078H87.09L76.383,29.369h4.191L88.5,49.296L96.5,29.369z"/>
	<path fill="#555555" d="M105.221,52.153h12.383v3.849h-16.27V29.369h16.231v3.849h-12.345v7.506h12.078v3.886h-12.078V52.153z"/>
	<path fill="#555555" d="M119.314,56.002V29.293l2.972,0.038l12.993,18.784V29.331h3.81v26.671h-3.048L123.162,37.37v18.632H119.314
		z"/>
	<path fill="#555555" d="M148.419,56.116V33.218h-8.077v-3.887h19.965v3.887h-8.039v22.898H148.419z"/>
	<path fill="#555555" d="M162.131,48.001V29.369h3.887v18.67c0,2.934,3.162,4.382,5.982,4.382c2.781,0,5.943-1.486,5.943-4.42
		V29.369h3.887v18.67c0,5.41-5.259,8.229-9.83,8.229C167.312,56.269,162.131,53.449,162.131,48.001z"/>
	<path fill="#555555" d="M189.75,42.476h4.495c3.239,0,4.839-2.323,4.839-4.647c0-2.286-1.6-4.61-4.839-4.61h-5.905v22.784h-3.811
		V29.331h9.716c5.792,0,8.688,4.268,8.688,8.497c0,3.771-2.324,7.354-6.896,8.153l8.421,10.021h-4.992l-9.715-11.697V42.476z"/>
	<path fill="#555555" d="M208.682,52.153h12.383v3.849h-16.27V29.369h16.231v3.849h-12.345v7.506h12.078v3.886h-12.078V52.153z"/>
</g>
<g enable-background="new    ">
	<path fill="#555555" d="M31.345,21.286c-0.672,0.899-1.347,1.797-2.025,2.69c-0.678,0.895-1.377,1.773-2.097,2.638
		c-0.336,0.407-0.675,0.812-1.017,1.215c-0.342,0.401-0.705,0.789-1.089,1.161c-0.168,0.168-0.36,0.345-0.576,0.53
		c-0.216,0.187-0.456,0.291-0.72,0.315c-0.3,0-0.531-0.111-0.693-0.333s-0.282-0.489-0.36-0.801
		c-0.078-0.312-0.129-0.63-0.153-0.954c-0.024-0.324-0.042-0.582-0.054-0.774c-0.06-0.54-0.111-1.073-0.153-1.602
		c-0.042-0.528-0.093-1.062-0.153-1.603c-0.06-0.479-0.135-0.983-0.225-1.512c-0.09-0.527-0.261-1.002-0.513-1.422
		c-0.096-0.156-0.187-0.252-0.27-0.288c-0.084-0.036-0.204-0.084-0.36-0.144c-0.132-0.048-0.255-0.1-0.369-0.153
		c-0.114-0.054-0.171-0.171-0.171-0.351c0-0.145,0.045-0.255,0.135-0.333s0.201-0.139,0.333-0.181
		c0.132-0.042,0.267-0.071,0.405-0.09c0.138-0.018,0.254-0.039,0.351-0.062l2.088-0.378c0.9-0.168,1.8-0.312,2.7-0.433
		s1.806-0.233,2.718-0.342c2.304-0.276,4.596-0.507,6.876-0.693c2.28-0.186,4.578-0.326,6.894-0.423
		c0.168-0.012,0.351-0.015,0.549-0.009c0.198,0.006,0.339,0.111,0.423,0.314c0.06,0.156,0.042,0.307-0.054,0.45
		c-0.096,0.145-0.228,0.223-0.396,0.234c-0.168,0.048-0.363,0.066-0.585,0.054c-0.222-0.012-0.423-0.012-0.603,0l-1.638,0.072
		l-3.042,0.216c-1.176,0.084-2.346,0.178-3.51,0.279c-1.165,0.102-2.334,0.219-3.51,0.351c-1.404,0.156-2.793,0.333-4.167,0.531
		s-2.751,0.429-4.131,0.693c0.168,0.24,0.309,0.513,0.423,0.818c0.114,0.307,0.204,0.621,0.27,0.945s0.12,0.639,0.162,0.945
		c0.042,0.306,0.075,0.573,0.099,0.801c0.06,0.492,0.111,0.98,0.153,1.467s0.093,0.981,0.153,1.485
		c0.012,0.144,0.021,0.309,0.027,0.495c0.006,0.186,0.021,0.374,0.045,0.566c0.024,0.192,0.06,0.381,0.108,0.567
		c0.048,0.186,0.114,0.345,0.198,0.477c0.06-0.06,0.135-0.117,0.225-0.171c0.09-0.054,0.159-0.099,0.207-0.135
		c0.204-0.192,0.399-0.394,0.585-0.604s0.375-0.417,0.567-0.62c0.828-0.948,1.614-1.914,2.358-2.898
		c0.384-0.492,0.765-0.983,1.143-1.476c0.378-0.492,0.759-0.99,1.143-1.494c0.048-0.072,0.102-0.156,0.162-0.252
		c0.06-0.097,0.126-0.189,0.198-0.279c0.072-0.09,0.15-0.165,0.234-0.225c0.083-0.061,0.18-0.091,0.288-0.091
		c0.204,0,0.354,0.094,0.45,0.279C31.477,20.941,31.465,21.118,31.345,21.286z"/>
	<path fill="#555555" d="M40.273,20.404c-0.601,0.348-1.164,0.759-1.692,1.232c-0.528,0.475-1.044,0.957-1.548,1.449
		c-0.288,0.276-0.57,0.558-0.846,0.846c-0.276,0.288-0.552,0.576-0.828,0.864c-0.144,0.168-0.297,0.333-0.459,0.495
		s-0.321,0.333-0.477,0.513c0.252-0.06,0.501-0.132,0.747-0.216c0.246-0.084,0.471-0.155,0.675-0.216
		c0.18-0.036,0.372-0.084,0.576-0.145c0.204-0.06,0.408-0.11,0.612-0.152s0.411-0.066,0.621-0.072s0.405,0.027,0.585,0.099
		c0.228,0.085,0.366,0.229,0.414,0.433c0.036,0.132,0.024,0.258-0.036,0.378c0.204-0.06,0.405-0.126,0.603-0.198
		c0.198-0.072,0.387-0.138,0.567-0.198c0.348-0.107,0.696-0.219,1.044-0.333c0.348-0.113,0.702-0.207,1.062-0.278
		c0.096-0.024,0.213-0.039,0.351-0.045s0.261,0.009,0.369,0.045s0.189,0.099,0.243,0.188c0.054,0.09,0.057,0.22,0.009,0.387
		c-0.036,0.108-0.108,0.195-0.216,0.262c-0.108,0.065-0.234,0.117-0.378,0.152c-0.144,0.036-0.288,0.063-0.432,0.081
		c-0.144,0.019-0.258,0.039-0.342,0.063c-0.408,0.12-0.81,0.243-1.206,0.369s-0.792,0.249-1.188,0.369
		c-0.205,0.06-0.426,0.122-0.666,0.188c-0.24,0.066-0.468,0.075-0.684,0.027c-0.084-0.013-0.174-0.048-0.27-0.108
		c-0.204-0.156-0.3-0.3-0.288-0.432c0.012-0.132,0.066-0.264,0.162-0.396h-0.216c-0.432,0.072-0.864,0.162-1.296,0.271
		c-0.348,0.096-0.699,0.204-1.053,0.324c-0.354,0.119-0.717,0.197-1.089,0.233c-0.132,0.012-0.264-0.009-0.396-0.062
		c-0.132-0.055-0.228-0.159-0.288-0.315c-0.036-0.12-0.033-0.246,0.009-0.378s0.108-0.261,0.198-0.387
		c0.09-0.126,0.187-0.243,0.288-0.352c0.102-0.107,0.189-0.203,0.261-0.288c0.612-0.695,1.248-1.364,1.908-2.007
		c0.66-0.642,1.338-1.269,2.034-1.881c0.3-0.264,0.606-0.521,0.918-0.773c0.312-0.253,0.63-0.486,0.954-0.702
		c0.132-0.097,0.279-0.159,0.441-0.189c0.162-0.029,0.297,0.039,0.405,0.207c0.06,0.108,0.075,0.226,0.045,0.352
		C40.45,20.233,40.381,20.332,40.273,20.404z"/>
	<path fill="#555555" d="M50.803,25.822c-0.276,0.023-0.549,0.069-0.819,0.135c-0.27,0.066-0.543,0.129-0.819,0.188
		c-0.72,0.169-1.434,0.327-2.142,0.478c-0.708,0.149-1.428,0.261-2.16,0.333c-0.192,0.023-0.393,0.042-0.603,0.054
		s-0.42,0.006-0.63-0.018c-0.21-0.024-0.411-0.069-0.603-0.135c-0.192-0.066-0.366-0.166-0.522-0.298
		c-0.132-0.107-0.237-0.233-0.315-0.378c-0.078-0.144-0.126-0.294-0.144-0.449c-0.018-0.156-0.003-0.31,0.045-0.459
		c0.048-0.15,0.138-0.285,0.27-0.405c0.084-0.084,0.219-0.153,0.405-0.207s0.393-0.093,0.621-0.117
		c0.228-0.023,0.456-0.03,0.684-0.018c0.228,0.012,0.426,0.054,0.594,0.126c0.168,0.071,0.285,0.171,0.351,0.297
		s0.057,0.285-0.027,0.477c-0.072,0.145-0.18,0.246-0.324,0.307c-0.144,0.06-0.306,0.099-0.486,0.116
		c-0.18,0.019-0.366,0.019-0.558,0c-0.192-0.018-0.36-0.038-0.504-0.062c0.048,0.048,0.144,0.087,0.288,0.117
		c0.144,0.029,0.297,0.051,0.459,0.062c0.162,0.013,0.312,0.019,0.45,0.019c0.138,0,0.225,0,0.261,0
		c0.588-0.048,1.173-0.132,1.755-0.252s1.161-0.246,1.737-0.379c0.42-0.096,0.837-0.194,1.251-0.297
		c0.414-0.102,0.831-0.177,1.251-0.225c0.18-0.012,0.33,0.03,0.45,0.126s0.198,0.207,0.234,0.333
		c0.036,0.126,0.021,0.243-0.045,0.351C51.142,25.75,51.007,25.811,50.803,25.822z"/>
</g>
</svg>
