<?xml version="1.0" encoding="utf-8"?>
<!-- Generator: Adobe Illustrator 15.0.0, SVG Export Plug-In . SVG Version: 6.00 Build 0)  -->
<!DOCTYPE svg PUBLIC "-//W3C//DTD SVG 1.1//EN" "http://www.w3.org/Graphics/SVG/1.1/DTD/svg11.dtd">
<svg version="1.1" id="Layer_1" xmlns="http://www.w3.org/2000/svg" xmlns:xlink="http://www.w3.org/1999/xlink" x="0px" y="0px"
	 width="240px" height="80px" viewBox="0 0 240 80" enable-background="new 0 0 240 80" xml:space="preserve">
<g id="guides" display="none">
</g>
<g enable-background="new    ">
	<path fill="#555555" d="M57.234,46.136c0,0.446,0.31,0.781,0.93,1.005l2.083,0.67l-0.223,1.451
		c-1.613-0.224-2.977-0.335-4.093-0.335c-1.116,0-2.53,0.111-4.242,0.335l-0.298-1.451c1.116-0.224,1.823-0.483,2.121-0.781
		s0.657-1.042,1.079-2.232l7.293-19.871c1.166-0.223,2.27-0.595,3.312-1.116l8.112,20.987c0.446,1.166,0.818,1.903,1.116,2.214
		s0.93,0.576,1.898,0.8l-0.261,1.451c-1.711-0.224-3.38-0.335-5.005-0.335c-1.625,0-3.367,0.111-5.228,0.335l-0.223-1.451
		c0.819-0.248,1.519-0.483,2.103-0.707c0.583-0.224,0.875-0.546,0.875-0.968c0-0.173-0.038-0.347-0.112-0.521l-1.898-5.173h-7.516
		l-1.749,5.173C57.259,45.739,57.234,45.913,57.234,46.136z M62.369,30.88l-2.493,7.182h5.842l-2.493-6.921l-0.409-1.563
		l-0.261-0.111L62.369,30.88z"/>
	<path fill="#555555" d="M86.556,58.341c-2.307-0.223-3.87-0.335-4.688-0.335c-0.819,0-2.456,0.112-4.912,0.335l-0.372-1.34
		c0.893-0.198,1.538-0.422,1.935-0.669c0.396-0.249,0.595-0.633,0.595-1.154V36.61c0-0.843-0.322-1.266-0.967-1.266l-1.712,0.224
		l-0.186-1.414c2.133-0.942,4.155-1.501,6.065-1.675l0.781,0.856c0,0.546,0.124,1.166,0.373,1.86l1.637-1.229
		c1.141-0.867,2.17-1.302,3.088-1.302c2.257,0,3.919,0.683,4.986,2.047s1.6,3.317,1.6,5.86s-0.806,4.67-2.418,6.382
		c-1.613,1.711-3.684,2.567-6.214,2.567c-0.818,0-1.674-0.273-2.567-0.819v6.55c0,0.471,0.198,0.843,0.595,1.116
		c0.571,0.247,1.315,0.446,2.233,0.595l0.409,0.075L86.556,58.341z M86.481,47.624c0.968,0,1.792-0.539,2.475-1.618
		c0.682-1.079,1.023-2.661,1.023-4.744c0-3.87-1.129-5.805-3.386-5.805c-0.918,0-1.923,0.509-3.014,1.525v8.559
		c0.273,0.595,0.682,1.092,1.228,1.488C85.352,47.426,85.91,47.624,86.481,47.624z"/>
	<path fill="#555555" d="M106.352,58.341c-2.307-0.223-3.87-0.335-4.688-0.335c-0.819,0-2.456,0.112-4.912,0.335l-0.372-1.34
		c0.893-0.198,1.538-0.422,1.935-0.669c0.396-0.249,0.595-0.633,0.595-1.154V36.61c0-0.843-0.322-1.266-0.967-1.266l-1.712,0.224
		l-0.186-1.414c2.133-0.942,4.155-1.501,6.065-1.675l0.781,0.856c0,0.546,0.124,1.166,0.373,1.86l1.637-1.229
		c1.141-0.867,2.17-1.302,3.088-1.302c2.257,0,3.919,0.683,4.986,2.047s1.6,3.317,1.6,5.86s-0.806,4.67-2.418,6.382
		c-1.613,1.711-3.684,2.567-6.214,2.567c-0.818,0-1.674-0.273-2.567-0.819v6.55c0,0.471,0.198,0.843,0.595,1.116
		c0.571,0.247,1.315,0.446,2.233,0.595l0.409,0.075L106.352,58.341z M106.277,47.624c0.968,0,1.792-0.539,2.475-1.618
		c0.682-1.079,1.023-2.661,1.023-4.744c0-3.87-1.129-5.805-3.386-5.805c-0.918,0-1.923,0.509-3.014,1.525v8.559
		c0.273,0.595,0.682,1.092,1.228,1.488C105.148,47.426,105.706,47.624,106.277,47.624z"/>
	<path fill="#555555" d="M124.845,27.978v18.604h6.55c0.322-0.272,0.737-0.911,1.246-1.916c0.508-1.005,0.85-1.792,1.023-2.362
		l1.785,0.335c-0.024,0.62-0.136,1.692-0.334,3.218c-0.199,1.526-0.373,2.55-0.521,3.07h-12.428c-0.547,0-2.047,0.111-4.502,0.335
		l-0.298-1.414c0.942-0.198,1.625-0.415,2.046-0.651c0.422-0.235,0.633-0.639,0.633-1.209V27.68c0-0.545-0.149-0.905-0.447-1.079
		c-0.471-0.248-1.092-0.471-1.86-0.67l-0.372-0.074l0.335-1.451c1.711,0.224,3.466,0.335,5.265,0.335
		c1.798,0,3.591-0.111,5.377-0.335l0.298,1.562c-1.539,0.298-2.556,0.54-3.051,0.726C125.093,26.88,124.845,27.308,124.845,27.978z"
		/>
	<path fill="#555555" d="M145.013,49.522c-2.556,0-4.558-0.72-6.01-2.158c-1.451-1.438-2.177-3.405-2.177-5.898
		s0.764-4.552,2.289-6.177c1.525-1.624,3.572-2.438,6.139-2.438c2.568,0,4.584,0.726,6.047,2.177
		c1.464,1.451,2.195,3.411,2.195,5.88s-0.775,4.521-2.325,6.158C149.62,48.703,147.567,49.522,145.013,49.522z M141.627,40.777
		c0,2.209,0.354,3.901,1.061,5.079c0.707,1.179,1.692,1.768,2.957,1.768c2.035,0,3.052-2.009,3.052-6.027
		c0-2.208-0.36-3.901-1.079-5.079c-0.72-1.179-1.725-1.768-3.014-1.768C142.618,34.75,141.627,36.759,141.627,40.777z"/>
	<path fill="#555555" d="M167.376,36.015c0.124-0.272,0.187-0.515,0.187-0.726c0-0.21-0.075-0.365-0.225-0.465
		c-0.272-0.248-0.855-0.422-1.748-0.521l-0.074-1.302c1.389,0.174,2.555,0.26,3.498,0.26c0.941,0,2.145-0.086,3.609-0.26
		l-0.262,1.377c-0.645,0.074-1.085,0.217-1.32,0.428c-0.236,0.211-0.502,0.651-0.8,1.32l-5.619,13.136h-2.716l-5.656-13.284
		c-0.248-0.62-0.49-1.029-0.726-1.228c-0.236-0.198-0.677-0.335-1.321-0.41l-0.26-1.376c1.661,0.198,3.001,0.297,4.018,0.297
		c1.018,0,2.654-0.099,4.912-0.297l-0.148,1.302c-0.77,0.199-1.283,0.354-1.545,0.466c-0.26,0.111-0.391,0.278-0.391,0.502
		s0.062,0.472,0.187,0.744l2.902,7.367l0.224,0.968l0.223,0.037l0.261-1.079L167.376,36.015z"/>
	<path fill="#555555" d="M182.148,46.62c1.562,0,3.112-0.533,4.65-1.601l0.781,1.19c-2.381,2.209-4.602,3.312-6.66,3.312
		c-2.432,0-4.372-0.744-5.823-2.233c-1.451-1.488-2.177-3.447-2.177-5.879c0-2.431,0.731-4.496,2.195-6.195
		c1.463-1.699,3.367-2.549,5.712-2.549s4.099,0.713,5.265,2.14s1.749,3.343,1.749,5.749l-10.121,0.67
		C177.918,44.821,179.395,46.62,182.148,46.62z M183.004,38.694c0-2.754-0.818-4.131-2.456-4.131c-0.918,0-1.618,0.478-2.103,1.433
		c-0.483,0.955-0.726,2.103-0.726,3.442L183.004,38.694z"/>
</g>
</svg>
