<?xml version="1.0" encoding="utf-8"?>
<!-- Generator: Adobe Illustrator 15.0.0, SVG Export Plug-In . SVG Version: 6.00 Build 0)  -->
<!DOCTYPE svg PUBLIC "-//W3C//DTD SVG 1.1//EN" "http://www.w3.org/Graphics/SVG/1.1/DTD/svg11.dtd">
<svg version="1.1" id="Layer_1" xmlns="http://www.w3.org/2000/svg" xmlns:xlink="http://www.w3.org/1999/xlink" x="0px" y="0px"
	 width="230px" height="35px" viewBox="0 0 230 35" enable-background="new 0 0 230 35" xml:space="preserve">
<g id="Layer_3">
	<g>
		<path fill="none" stroke="#888888" stroke-width="1.5" stroke-miterlimit="10" d="M78.225,3.877c0,0,23.549-1.611,21.247,2.239
			c-2.302,3.85-32.365,32.901-42.898,24.825c-6.766-5.188-0.046-12.465,12.833-11.082c12.878,1.383,23.117,3.771,30.74,2.127
			c7.623-1.646,9.878-5.479,3.338-4.354c-6.541,1.127-4.06,7.218,4.736,4.513c8.788-2.705,4.962-3.607,4.962-3.607
			s5.398,2.256,2.029,4.285c-3.383,2.029,4.496-3.836,6.752-3.609c2.257,0.227,5.696,3.166,1.382,3.613
			c-4.313,0.447-1.156-4.062,5.609-4.289s3.432,1.957,3.432,1.957s3.334-3.084,6.491-1.957c3.158,1.127,3.157,3.455,3.157,3.455"/>
		<path fill="none" stroke="#888888" stroke-width="1.5" stroke-miterlimit="10" d="M151.282,1.397c0,0-9.505,24.803-13.493,26.353
			c-1.54,0.6-2.312-0.625-2.312-0.625s1.812-9.375,39.812-13.625"/>
	</g>
	<line fill="none" stroke="#888888" stroke-width="1.5" stroke-miterlimit="10" x1="157.789" y1="9.458" x2="151.414" y2="24.209"/>
	
		<ellipse fill="none" stroke="#888888" stroke-width="1.5" stroke-miterlimit="10" cx="155.164" cy="24.963" rx="0.451" ry="0.283"/>
</g>
</svg>
